<?xml version="1.0" encoding="utf-8"?>
<!-- Generator: Adobe Illustrator 24.3.0, SVG Export Plug-In . SVG Version: 6.00 Build 0)  -->
<svg version="1.1" id="Crafticons_-_Simple_Set" xmlns="http://www.w3.org/2000/svg" xmlns:xlink="http://www.w3.org/1999/xlink"
	 x="0px" y="0px" viewBox="0 0 200 200" style="enable-background:new 0 0 200 200;" xml:space="preserve">
<style type="text/css">
	.st0{fill:#F05D4B;}
	.st1{fill:none;stroke:#000000;stroke-width:3;stroke-miterlimit:10;}
	.st2{fill:#1D1D1B;}
	.st3{fill:#FFFFFF;}
	.st4{fill:#F05D00;}
	.st5{fill:#F0286F;}
	.st6{fill:#14B0E7;}
	.st7{fill:#1D1D1B;stroke:#1D1D1B;stroke-width:0.9099;stroke-miterlimit:10;}
	.st8{fill:#9600BF;}
	.st9{fill:#1D1D1B;stroke:#1D1D1B;stroke-width:0.1137;stroke-miterlimit:10;}
	.st10{fill:#1D1D1B;stroke:#1D1D1B;stroke-width:0.4549;stroke-miterlimit:10;}
	.st11{fill:#0006F4;}
	.st12{fill:#D5FF39;}
	.st13{fill:#E9B100;}
	.st14{fill:#00FA4B;}
	.st15{fill:#1D1E1C;stroke:#1D1D1B;stroke-width:0.7742;stroke-miterlimit:10;}
	.st16{fill:#1D1E1C;stroke:#1D1D1B;stroke-width:0.729;stroke-miterlimit:10;}
	.st17{fill:#AC00B4;}
	.st18{fill:#F05D11;}
	.st19{fill:#00E9D9;}
	.st20{fill:#1D1E1C;}
	.st21{fill:#1D1D1B;stroke:#1D1D1B;stroke-width:1.0934;stroke-miterlimit:10;}
	.st22{fill:#1D1D1B;stroke:#1D1D1B;stroke-width:1.6531;stroke-miterlimit:10;}
	.st23{fill:#1D1D1B;stroke:#1D1D1B;stroke-width:1.6433;stroke-miterlimit:10;}
	.st24{fill:#1D1E1C;stroke:#1D1D1B;stroke-width:1.6433;stroke-miterlimit:10;}
	.st25{fill:none;stroke:#1D1D1B;stroke-width:5.7308;stroke-miterlimit:10;}
	.st26{fill:none;stroke:#FFFFFF;stroke-width:3.2614;stroke-miterlimit:10;}
	.st27{fill:#FFFFFF;stroke:#FFFFFF;stroke-width:0.5566;stroke-miterlimit:10;}
	.st28{fill:#FFFFFF;stroke:#FFFFFF;stroke-width:0.9242;stroke-miterlimit:10;}
</style>
<path class="st12" d="M79.51,117.42c-12.11-12.11-12.11-31.8,0-43.91c5.86-5.86,13.66-9.09,21.96-9.09s16.09,3.23,21.96,9.09
	c12.11,12.11,12.11,31.8,0,43.91l-21.96,21.96L79.51,117.42z"/>
<path class="st1" d="M122.99,70.15L122.99,70.15c-12.7-12.7-33.28-12.7-45.98,0l0,0c-12.7,12.7-12.7,33.28,0,45.98L100,139.12
	l22.99-22.99C135.69,103.43,135.69,82.84,122.99,70.15z"/>
<path class="st3" d="M118.24,91.85c-1.06-2.12-3.07-3.29-5.65-3.29H99.27c-0.16,0-1.63,0.02-3.14,0.78
	c-2.12,1.06-3.29,3.07-3.29,5.65v1.4h2.8v-1.4c0-1.51,0.55-2.53,1.67-3.12c0.93-0.49,1.92-0.52,1.97-0.52h13.31
	c1.51,0,2.53,0.55,3.12,1.67c0.49,0.93,0.52,1.92,0.52,1.97v10.06c0,1.51-0.55,2.53-1.67,3.12c-0.93,0.49-1.92,0.52-1.97,0.52H92.45
	c-1.51,0-2.53-0.55-3.12-1.67c-0.49-0.93-0.52-1.91-0.52-1.97V81.91c1.81,0.65,4.71,1.63,7.91,2.44c3.09,0.79,5.81,1.25,8.08,1.38
	c3.08,0.17,5.34-0.26,6.9-1.31c1.49-1.01,2.27-2.57,2.27-4.52v-1.4h-2.8v1.4c0,0.64-0.11,1.57-1.04,2.21
	c-2.59,1.76-9.07,0.47-12.7-0.45c-4.19-1.06-7.96-2.46-9.13-2.91l-2.29,2.29v24.03c0,0.01-0.02,0.97-0.48,1.89
	c-0.59,1.17-1.62,1.74-3.15,1.74h-1.4v2.8h1.4c2.15,0,3.89-0.81,5.03-2.29c1.14,1.49,2.89,2.29,5.03,2.29h20.13
	c0.16,0,1.63-0.02,3.14-0.78c2.12-1.06,3.29-3.07,3.29-5.65V94.99C119.01,94.82,118.99,93.36,118.24,91.85z"/>
</svg>
