<?xml version="1.0" encoding="utf-8"?>
<!-- Generator: Adobe Illustrator 24.3.0, SVG Export Plug-In . SVG Version: 6.00 Build 0)  -->
<svg version="1.1" id="Crafticons_-_Simple_Set" xmlns="http://www.w3.org/2000/svg" xmlns:xlink="http://www.w3.org/1999/xlink"
	 x="0px" y="0px" viewBox="0 0 200 200" style="enable-background:new 0 0 200 200;" xml:space="preserve">
<style type="text/css">
	.st0{fill:#F05D4B;}
	.st1{fill:none;stroke:#000000;stroke-width:3;stroke-miterlimit:10;}
	.st2{fill:#1D1D1B;}
	.st3{fill:#FFFFFF;}
	.st4{fill:#F05D00;}
	.st5{fill:#F0286F;}
	.st6{fill:#14B0E7;}
	.st7{fill:#1D1D1B;stroke:#1D1D1B;stroke-width:0.9099;stroke-miterlimit:10;}
	.st8{fill:#9600BF;}
	.st9{fill:#1D1D1B;stroke:#1D1D1B;stroke-width:0.1137;stroke-miterlimit:10;}
	.st10{fill:#1D1D1B;stroke:#1D1D1B;stroke-width:0.4549;stroke-miterlimit:10;}
	.st11{fill:#0006F4;}
	.st12{fill:#D5FF39;}
	.st13{fill:#E9B100;}
	.st14{fill:#00FA4B;}
	.st15{fill:#1D1E1C;stroke:#1D1D1B;stroke-width:0.7742;stroke-miterlimit:10;}
	.st16{fill:#1D1E1C;stroke:#1D1D1B;stroke-width:0.729;stroke-miterlimit:10;}
	.st17{fill:#AC00B4;}
	.st18{fill:#F05D11;}
	.st19{fill:#00E9D9;}
	.st20{fill:#1D1E1C;}
	.st21{fill:#1D1D1B;stroke:#1D1D1B;stroke-width:1.0934;stroke-miterlimit:10;}
	.st22{fill:#1D1D1B;stroke:#1D1D1B;stroke-width:1.6531;stroke-miterlimit:10;}
	.st23{fill:#1D1D1B;stroke:#1D1D1B;stroke-width:1.6433;stroke-miterlimit:10;}
	.st24{fill:#1D1E1C;stroke:#1D1D1B;stroke-width:1.6433;stroke-miterlimit:10;}
	.st25{fill:none;stroke:#1D1D1B;stroke-width:5.7308;stroke-miterlimit:10;}
	.st26{fill:none;stroke:#FFFFFF;stroke-width:3.2614;stroke-miterlimit:10;}
	.st27{fill:#FFFFFF;stroke:#FFFFFF;stroke-width:0.5566;stroke-miterlimit:10;}
	.st28{fill:#FFFFFF;stroke:#FFFFFF;stroke-width:0.9242;stroke-miterlimit:10;}
</style>
<path class="st6" d="M79.51,117.82c-12.11-12.11-12.11-31.8,0-43.91c5.86-5.86,13.66-9.09,21.96-9.09s16.09,3.23,21.96,9.09
	c12.11,12.11,12.11,31.8,0,43.91l-21.96,21.96L79.51,117.82z"/>
<path class="st1" d="M122.99,70.55L122.99,70.55c-12.7-12.7-33.28-12.7-45.98,0l0,0c-12.7,12.7-12.7,33.28,0,45.98L100,139.52
	l22.99-22.99C135.69,103.83,135.69,83.24,122.99,70.55z"/>
<g>
	<path class="st3" d="M100,113.33c-4.89,0-9.49-1.9-12.95-5.36c-3.46-3.46-5.36-8.06-5.36-12.95c0-4.89,1.9-9.49,5.36-12.95
		S95.11,76.7,100,76.7h1.19v2.38H100c-4.26,0-8.26,1.66-11.27,4.67c-3.01,3.01-4.67,7.01-4.67,11.27c0,4.26,1.66,8.26,4.67,11.27
		c3.01,3.01,7.01,4.67,11.27,4.67c4.26,0,8.26-1.66,11.27-4.67c3.01-3.01,4.67-7.01,4.67-11.27c0-0.02-0.02-1.95-0.98-3.82
		c-1.21-2.36-3.36-3.56-6.39-3.56c-3.06,0-5.23,1.22-6.43,3.62c-0.92,1.84-0.94,3.73-0.94,3.75v1.19h-2.38v-1.19
		c0-0.1,0.01-2.45,1.2-4.81c1.13-2.25,3.52-4.94,8.56-4.94s7.43,2.69,8.56,4.94c1.18,2.36,1.2,4.71,1.2,4.81
		c0,4.89-1.9,9.49-5.36,12.95C109.49,111.42,104.89,113.33,100,113.33z"/>
</g>
</svg>
