<?xml version="1.0" encoding="utf-8"?>
<!-- Generator: Adobe Illustrator 24.3.0, SVG Export Plug-In . SVG Version: 6.00 Build 0)  -->
<svg version="1.1" id="Crafticons_-_Simple_Set" xmlns="http://www.w3.org/2000/svg" xmlns:xlink="http://www.w3.org/1999/xlink"
	 x="0px" y="0px" viewBox="0 0 200 200" style="enable-background:new 0 0 200 200;" xml:space="preserve">
<style type="text/css">
	.st0{fill:#F05D4B;}
	.st1{fill:none;stroke:#000000;stroke-width:3;stroke-miterlimit:10;}
	.st2{fill:#1D1D1B;}
	.st3{fill:#FFFFFF;}
	.st4{fill:#F05D00;}
	.st5{fill:#F0286F;}
	.st6{fill:#14B0E7;}
	.st7{fill:#1D1D1B;stroke:#1D1D1B;stroke-width:0.9099;stroke-miterlimit:10;}
	.st8{fill:#9600BF;}
	.st9{fill:#1D1D1B;stroke:#1D1D1B;stroke-width:0.1137;stroke-miterlimit:10;}
	.st10{fill:#1D1D1B;stroke:#1D1D1B;stroke-width:0.4549;stroke-miterlimit:10;}
	.st11{fill:#0006F4;}
	.st12{fill:#D5FF39;}
	.st13{fill:#E9B100;}
	.st14{fill:#00FA4B;}
	.st15{fill:#1D1E1C;stroke:#1D1D1B;stroke-width:0.7742;stroke-miterlimit:10;}
	.st16{fill:#1D1E1C;stroke:#1D1D1B;stroke-width:0.729;stroke-miterlimit:10;}
	.st17{fill:#AC00B4;}
	.st18{fill:#F05D11;}
	.st19{fill:#00E9D9;}
	.st20{fill:#1D1E1C;}
	.st21{fill:#1D1D1B;stroke:#1D1D1B;stroke-width:1.0934;stroke-miterlimit:10;}
	.st22{fill:#1D1D1B;stroke:#1D1D1B;stroke-width:1.6531;stroke-miterlimit:10;}
	.st23{fill:#1D1D1B;stroke:#1D1D1B;stroke-width:1.6433;stroke-miterlimit:10;}
	.st24{fill:#1D1E1C;stroke:#1D1D1B;stroke-width:1.6433;stroke-miterlimit:10;}
	.st25{fill:none;stroke:#1D1D1B;stroke-width:5.7308;stroke-miterlimit:10;}
	.st26{fill:none;stroke:#FFFFFF;stroke-width:3.2614;stroke-miterlimit:10;}
	.st27{fill:#FFFFFF;stroke:#FFFFFF;stroke-width:0.5566;stroke-miterlimit:10;}
	.st28{fill:#FFFFFF;stroke:#FFFFFF;stroke-width:0.9242;stroke-miterlimit:10;}
</style>
<path class="st0" d="M68.01,131.66c-12.11-12.11-12.11-31.8,0-43.91c5.86-5.86,13.66-9.09,21.96-9.09s16.09,3.23,21.96,9.09
	c12.11,12.11,12.11,31.8,0,43.91l-21.96,21.96L68.01,131.66z"/>
<path class="st1" d="M111.49,84.39L111.49,84.39c-12.7-12.7-33.28-12.7-45.98,0l0,0c-12.7,12.7-12.7,33.28,0,45.98l22.99,22.99
	l22.99-22.99C124.19,117.67,124.19,97.08,111.49,84.39z"/>
<g>
	<path class="st3" d="M88.17,133.6c-9.26-0.09-16.72-7.7-16.64-16.96l3.78,0.04c-0.07,7.18,5.71,13.07,12.89,13.14
		c6.77,0.07,12.4-5.08,13.07-11.69L73.5,105.26l-1.64-0.87l0.01-1.15c0.04-4.48,1.84-8.63,5.05-11.7c3.18-3.03,7.41-4.68,11.9-4.64
		c9.26,0.09,16.72,7.7,16.64,16.96l-3.78-0.04c0.07-7.18-5.71-13.07-12.89-13.14c-3.5-0.03-6.79,1.24-9.26,3.59
		c-2.19,2.09-3.52,4.84-3.82,7.84l29.42,13.63l-0.01,1.22C105.04,126.23,97.43,133.69,88.17,133.6z"/>
</g>
</svg>
