<?xml version="1.0" encoding="utf-8"?>
<!-- Generator: Adobe Illustrator 24.3.0, SVG Export Plug-In . SVG Version: 6.00 Build 0)  -->
<svg version="1.1" id="Crafticons_-_Simple_Set" xmlns="http://www.w3.org/2000/svg" xmlns:xlink="http://www.w3.org/1999/xlink"
	 x="0px" y="0px" viewBox="0 0 200 200" style="enable-background:new 0 0 200 200;" xml:space="preserve">
<style type="text/css">
	.st0{fill:#F05D4B;}
	.st1{fill:none;stroke:#000000;stroke-width:3;stroke-miterlimit:10;}
	.st2{fill:#1D1D1B;}
	.st3{fill:#FFFFFF;}
	.st4{fill:#F05D00;}
	.st5{fill:#F0286F;}
	.st6{fill:#14B0E7;}
	.st7{fill:#1D1D1B;stroke:#1D1D1B;stroke-width:0.9099;stroke-miterlimit:10;}
	.st8{fill:#9600BF;}
	.st9{fill:#1D1D1B;stroke:#1D1D1B;stroke-width:0.1137;stroke-miterlimit:10;}
	.st10{fill:#1D1D1B;stroke:#1D1D1B;stroke-width:0.4549;stroke-miterlimit:10;}
	.st11{fill:#0006F4;}
	.st12{fill:#D5FF39;}
	.st13{fill:#E9B100;}
	.st14{fill:#00FA4B;}
	.st15{fill:#1D1E1C;stroke:#1D1D1B;stroke-width:0.7742;stroke-miterlimit:10;}
	.st16{fill:#1D1E1C;stroke:#1D1D1B;stroke-width:0.729;stroke-miterlimit:10;}
	.st17{fill:#AC00B4;}
	.st18{fill:#F05D11;}
	.st19{fill:#00E9D9;}
	.st20{fill:#1D1E1C;}
	.st21{fill:#1D1D1B;stroke:#1D1D1B;stroke-width:1.0934;stroke-miterlimit:10;}
	.st22{fill:#1D1D1B;stroke:#1D1D1B;stroke-width:1.6531;stroke-miterlimit:10;}
	.st23{fill:#1D1D1B;stroke:#1D1D1B;stroke-width:1.6433;stroke-miterlimit:10;}
	.st24{fill:#1D1E1C;stroke:#1D1D1B;stroke-width:1.6433;stroke-miterlimit:10;}
	.st25{fill:none;stroke:#1D1D1B;stroke-width:5.7308;stroke-miterlimit:10;}
	.st26{fill:none;stroke:#FFFFFF;stroke-width:3.2614;stroke-miterlimit:10;}
	.st27{fill:#FFFFFF;stroke:#FFFFFF;stroke-width:0.5566;stroke-miterlimit:10;}
	.st28{fill:#FFFFFF;stroke:#FFFFFF;stroke-width:0.9242;stroke-miterlimit:10;}
</style>
<path class="st8" d="M84.38,117.82c-12.11-12.11-12.11-31.8,0-43.91c5.86-5.86,13.66-9.09,21.96-9.09s16.09,3.23,21.96,9.09
	c12.11,12.11,12.11,31.8,0,43.91l-21.96,21.96L84.38,117.82z"/>
<path class="st1" d="M127.86,70.55L127.86,70.55c-12.7-12.7-33.28-12.7-45.98,0l0,0c-12.7,12.7-12.7,33.28,0,45.98l22.99,22.99
	l22.99-22.99C140.56,103.83,140.56,83.24,127.86,70.55z"/>
<g>
	<path class="st3" d="M120.73,77.23c-1.59-0.79-3.14-0.82-3.31-0.82H88.55v0.28h-0.06v31.71l2.94,2.94V79.36h25.99
		c0.01,0,1.07,0.02,2.07,0.54c1.19,0.62,1.76,1.7,1.76,3.28l0,21.18c0,0.01-0.02,1.07-0.54,2.07c-0.62,1.19-1.7,1.76-3.28,1.76
		l-8.87,0c0,0,0,0,0,0c-0.08,0-4.75-0.03-7.82-3.09c-1.78-1.78-2.69-4.28-2.69-7.43v-1.47H95.1v1.47c0,3.96,1.2,7.16,3.56,9.51
		c3.9,3.88,9.55,3.95,9.9,3.95c0,0,0.01,0,0.01,0h8.86c2.72,0,4.84-1.23,5.95-3.46c0.79-1.59,0.82-3.14,0.82-3.31V83.18
		C124.19,80.46,122.96,78.35,120.73,77.23z"/>
</g>
</svg>
