<?xml version="1.0" encoding="utf-8"?>
<!-- Generator: Adobe Illustrator 24.3.0, SVG Export Plug-In . SVG Version: 6.00 Build 0)  -->
<svg version="1.1" id="Crafticons_-_Simple_Set" xmlns="http://www.w3.org/2000/svg" xmlns:xlink="http://www.w3.org/1999/xlink"
	 x="0px" y="0px" viewBox="0 0 200 200" style="enable-background:new 0 0 200 200;" xml:space="preserve">
<style type="text/css">
	.st0{fill:#F05D4B;}
	.st1{fill:none;stroke:#000000;stroke-width:3;stroke-miterlimit:10;}
	.st2{fill:#1D1D1B;}
	.st3{fill:#FFFFFF;}
	.st4{fill:#F05D00;}
	.st5{fill:#F0286F;}
	.st6{fill:#14B0E7;}
	.st7{fill:#1D1D1B;stroke:#1D1D1B;stroke-width:0.9099;stroke-miterlimit:10;}
	.st8{fill:#9600BF;}
	.st9{fill:#1D1D1B;stroke:#1D1D1B;stroke-width:0.1137;stroke-miterlimit:10;}
	.st10{fill:#1D1D1B;stroke:#1D1D1B;stroke-width:0.4549;stroke-miterlimit:10;}
	.st11{fill:#0006F4;}
	.st12{fill:#D5FF39;}
	.st13{fill:#E9B100;}
	.st14{fill:#00FA4B;}
	.st15{fill:#1D1E1C;stroke:#1D1D1B;stroke-width:0.7742;stroke-miterlimit:10;}
	.st16{fill:#1D1E1C;stroke:#1D1D1B;stroke-width:0.729;stroke-miterlimit:10;}
	.st17{fill:#AC00B4;}
	.st18{fill:#F05D11;}
	.st19{fill:#00E9D9;}
	.st20{fill:#1D1E1C;}
	.st21{fill:#1D1D1B;stroke:#1D1D1B;stroke-width:1.0934;stroke-miterlimit:10;}
	.st22{fill:#1D1D1B;stroke:#1D1D1B;stroke-width:1.6531;stroke-miterlimit:10;}
	.st23{fill:#1D1D1B;stroke:#1D1D1B;stroke-width:1.6433;stroke-miterlimit:10;}
	.st24{fill:#1D1E1C;stroke:#1D1D1B;stroke-width:1.6433;stroke-miterlimit:10;}
	.st25{fill:none;stroke:#1D1D1B;stroke-width:5.7308;stroke-miterlimit:10;}
	.st26{fill:none;stroke:#FFFFFF;stroke-width:3.2614;stroke-miterlimit:10;}
	.st27{fill:#FFFFFF;stroke:#FFFFFF;stroke-width:0.5566;stroke-miterlimit:10;}
	.st28{fill:#FFFFFF;stroke:#FFFFFF;stroke-width:0.9242;stroke-miterlimit:10;}
</style>
<path class="st6" d="M76.51,117.42c-12.11-12.11-12.11-31.8,0-43.91c5.86-5.86,13.66-9.09,21.96-9.09s16.09,3.23,21.96,9.09
	c12.11,12.11,12.11,31.8,0,43.91l-21.96,21.96L76.51,117.42z"/>
<path class="st1" d="M119.99,70.15L119.99,70.15c-12.7-12.7-33.28-12.7-45.98,0l0,0c-12.7,12.7-12.7,33.28,0,45.98L97,139.12
	l22.99-22.99C132.69,103.43,132.69,82.84,119.99,70.15z"/>
<path class="st3" d="M114.23,79.88h-6.57v2.3h6.57c0.56,0,1.02,0.46,1.02,1.02v20.58l-0.33,0.36l-8.57,8.57
	c-0.19,0.19-0.45,0.3-0.72,0.3c-0.27,0-0.53-0.11-0.72-0.3c-1.74-1.74-2.7-4.06-2.7-6.52v-7.44h4.38v-2.3h-4.38V83.59
	c0-1.83-1.49-3.32-3.32-3.32h-6.57v2.3h6.57c0.56,0,1.02,0.46,1.02,1.02v12.85h-3.68v2.3h3.68v4.54l-9.42,9.42
	c-0.19,0.19-0.45,0.3-0.72,0.3c-0.27,0-0.53-0.11-0.72-0.3l-2.7-2.7V83.59c0-1.83-1.49-3.32-3.32-3.32h-6.57v2.3h6.57
	c0.56,0,1.02,0.46,1.02,1.02v26.72h-0.03c0,1.48-1.21,2.69-2.69,2.69h-2.91v2.3h2.91c1.91,0,3.57-1.08,4.41-2.66l1.69,1.69
	c0.63,0.63,1.46,0.97,2.35,0.97c0.89,0,1.72-0.35,2.35-0.97l7.81-7.81c0.09,2.95,1.27,5.71,3.37,7.81c0.65,0.65,1.5,0.97,2.35,0.97
	c0.85,0,1.7-0.32,2.35-0.97l8.59-8.59l0.99-1.07V83.19C117.55,81.37,116.06,79.88,114.23,79.88z"/>
</svg>
