<?xml version="1.0" encoding="utf-8"?>
<!-- Generator: Adobe Illustrator 24.3.0, SVG Export Plug-In . SVG Version: 6.00 Build 0)  -->
<svg version="1.1" id="Crafticons_-_Simple_Set" xmlns="http://www.w3.org/2000/svg" xmlns:xlink="http://www.w3.org/1999/xlink"
	 x="0px" y="0px" viewBox="0 0 200 200" style="enable-background:new 0 0 200 200;" xml:space="preserve">
<style type="text/css">
	.st0{fill:#F05D4B;}
	.st1{fill:none;stroke:#000000;stroke-width:3;stroke-miterlimit:10;}
	.st2{fill:#1D1D1B;}
	.st3{fill:#FFFFFF;}
	.st4{fill:#F05D00;}
	.st5{fill:#F0286F;}
	.st6{fill:#14B0E7;}
	.st7{fill:#1D1D1B;stroke:#1D1D1B;stroke-width:0.9099;stroke-miterlimit:10;}
	.st8{fill:#9600BF;}
	.st9{fill:#1D1D1B;stroke:#1D1D1B;stroke-width:0.1137;stroke-miterlimit:10;}
	.st10{fill:#1D1D1B;stroke:#1D1D1B;stroke-width:0.4549;stroke-miterlimit:10;}
	.st11{fill:#0006F4;}
	.st12{fill:#D5FF39;}
	.st13{fill:#E9B100;}
	.st14{fill:#00FA4B;}
	.st15{fill:#1D1E1C;stroke:#1D1D1B;stroke-width:0.7742;stroke-miterlimit:10;}
	.st16{fill:#1D1E1C;stroke:#1D1D1B;stroke-width:0.729;stroke-miterlimit:10;}
	.st17{fill:#AC00B4;}
	.st18{fill:#F05D11;}
	.st19{fill:#00E9D9;}
	.st20{fill:#1D1E1C;}
	.st21{fill:#1D1D1B;stroke:#1D1D1B;stroke-width:1.0934;stroke-miterlimit:10;}
	.st22{fill:#1D1D1B;stroke:#1D1D1B;stroke-width:1.6531;stroke-miterlimit:10;}
	.st23{fill:#1D1D1B;stroke:#1D1D1B;stroke-width:1.6433;stroke-miterlimit:10;}
	.st24{fill:#1D1E1C;stroke:#1D1D1B;stroke-width:1.6433;stroke-miterlimit:10;}
	.st25{fill:none;stroke:#1D1D1B;stroke-width:5.7308;stroke-miterlimit:10;}
	.st26{fill:none;stroke:#FFFFFF;stroke-width:3.2614;stroke-miterlimit:10;}
	.st27{fill:#FFFFFF;stroke:#FFFFFF;stroke-width:0.5566;stroke-miterlimit:10;}
	.st28{fill:#FFFFFF;stroke:#FFFFFF;stroke-width:0.9242;stroke-miterlimit:10;}
</style>
<path class="st0" d="M81.31,121.08c-12.11-12.11-12.11-31.8,0-43.91c5.86-5.86,13.66-9.09,21.96-9.09s16.09,3.23,21.96,9.09
	c12.11,12.11,12.11,31.8,0,43.91l-21.96,21.96L81.31,121.08z"/>
<path class="st1" d="M124.8,73.8L124.8,73.8c-12.7-12.7-33.28-12.7-45.98,0l0,0c-12.7,12.7-12.7,33.28,0,45.98l22.99,22.99
	l22.99-22.99C137.49,107.08,137.49,86.5,124.8,73.8z"/>
<g>
	<path class="st3" d="M98.91,121.08c-4.4,0-12.71-2.66-12.71-12.71v-1.55h3.1v1.55c0,3.95,1.56,6.76,4.64,8.33
		c1.83,0.94,3.71,1.19,4.54,1.25l15.62-10.41V82.02H99.66v9.61c0,5.64-3.62,7.13-5.53,7.13H86.2v-3.1h7.93
		c0.38-0.02,2.43-0.29,2.43-4.03V80.47l1.55-1.55h17.54l1.55,1.55v27.9l-0.69,1.29l-16.74,11.16L98.91,121.08z"/>
</g>
</svg>
