<?xml version="1.0" encoding="utf-8"?>
<!-- Generator: Adobe Illustrator 24.3.0, SVG Export Plug-In . SVG Version: 6.00 Build 0)  -->
<svg version="1.1" id="Crafticons_-_Simple_Set" xmlns="http://www.w3.org/2000/svg" xmlns:xlink="http://www.w3.org/1999/xlink"
	 x="0px" y="0px" viewBox="0 0 200 200" style="enable-background:new 0 0 200 200;" xml:space="preserve">
<style type="text/css">
	.st0{fill:#F05D4B;}
	.st1{fill:none;stroke:#000000;stroke-width:3;stroke-miterlimit:10;}
	.st2{fill:#1D1D1B;}
	.st3{fill:#FFFFFF;}
	.st4{fill:#F05D00;}
	.st5{fill:#F0286F;}
	.st6{fill:#14B0E7;}
	.st7{fill:#1D1D1B;stroke:#1D1D1B;stroke-width:0.9099;stroke-miterlimit:10;}
	.st8{fill:#9600BF;}
	.st9{fill:#1D1D1B;stroke:#1D1D1B;stroke-width:0.1137;stroke-miterlimit:10;}
	.st10{fill:#1D1D1B;stroke:#1D1D1B;stroke-width:0.4549;stroke-miterlimit:10;}
	.st11{fill:#0006F4;}
	.st12{fill:#D5FF39;}
	.st13{fill:#E9B100;}
	.st14{fill:#00FA4B;}
	.st15{fill:#1D1E1C;stroke:#1D1D1B;stroke-width:0.7742;stroke-miterlimit:10;}
	.st16{fill:#1D1E1C;stroke:#1D1D1B;stroke-width:0.729;stroke-miterlimit:10;}
	.st17{fill:#AC00B4;}
	.st18{fill:#F05D11;}
	.st19{fill:#00E9D9;}
	.st20{fill:#1D1E1C;}
	.st21{fill:#1D1D1B;stroke:#1D1D1B;stroke-width:1.0934;stroke-miterlimit:10;}
	.st22{fill:#1D1D1B;stroke:#1D1D1B;stroke-width:1.6531;stroke-miterlimit:10;}
	.st23{fill:#1D1D1B;stroke:#1D1D1B;stroke-width:1.6433;stroke-miterlimit:10;}
	.st24{fill:#1D1E1C;stroke:#1D1D1B;stroke-width:1.6433;stroke-miterlimit:10;}
	.st25{fill:none;stroke:#1D1D1B;stroke-width:5.7308;stroke-miterlimit:10;}
	.st26{fill:none;stroke:#FFFFFF;stroke-width:3.2614;stroke-miterlimit:10;}
	.st27{fill:#FFFFFF;stroke:#FFFFFF;stroke-width:0.5566;stroke-miterlimit:10;}
	.st28{fill:#FFFFFF;stroke:#FFFFFF;stroke-width:0.9242;stroke-miterlimit:10;}
</style>
<path class="st0" d="M84.97,117.42c-12.11-12.11-12.11-31.8,0-43.91c5.86-5.86,13.66-9.09,21.96-9.09s16.09,3.23,21.96,9.09
	c12.11,12.11,12.11,31.8,0,43.91l-21.96,21.96L84.97,117.42z"/>
<path class="st1" d="M128.45,70.15L128.45,70.15c-12.7-12.7-33.28-12.7-45.98,0l0,0c-12.7,12.7-12.7,33.28,0,45.98l22.99,22.99
	l22.99-22.99C141.15,103.43,141.15,82.84,128.45,70.15z"/>
<path class="st3" d="M125.3,109.55l-2.54,0.13l0.07,1.33c0.06,1.19-0.34,2.33-1.14,3.22c-0.63,0.7-1.45,1.17-2.36,1.37l-11.48-18.8
	l11.48-18.8c0.91,0.2,1.73,0.67,2.36,1.37c0.8,0.88,1.2,2.03,1.14,3.22l-0.1,1.85l2.54,0.13l0.1-1.85c0.1-1.87-0.54-3.66-1.79-5.05
	c-1.25-1.39-2.97-2.21-4.84-2.3l-0.76-0.04l-11.62,19.04L94.73,75.32l-0.76,0.04c-1.87,0.1-3.59,0.92-4.84,2.3
	c-1.25,1.39-1.89,3.18-1.79,5.05l0.1,1.85l2.54-0.13l-0.1-1.85c-0.06-1.19,0.34-2.33,1.14-3.22c0.63-0.7,1.45-1.17,2.36-1.37
	l11.48,18.8l-11.48,18.8c-2.09-0.46-3.61-2.38-3.5-4.59l0.07-1.33l-2.54-0.13l-0.07,1.33c-0.2,3.86,2.78,7.16,6.63,7.36l0.76,0.04
	l11.62-19.04l11.62,19.04l0.76-0.04c1.87-0.1,3.59-0.92,4.84-2.3c1.25-1.39,1.89-3.18,1.79-5.05L125.3,109.55z"/>
</svg>
