<?xml version="1.0" encoding="utf-8"?>
<!-- Generator: Adobe Illustrator 24.3.0, SVG Export Plug-In . SVG Version: 6.00 Build 0)  -->
<svg version="1.1" id="Crafticons_-_Simple_Set" xmlns="http://www.w3.org/2000/svg" xmlns:xlink="http://www.w3.org/1999/xlink"
	 x="0px" y="0px" viewBox="0 0 200 200" style="enable-background:new 0 0 200 200;" xml:space="preserve">
<style type="text/css">
	.st0{fill:#F05D4B;}
	.st1{fill:none;stroke:#000000;stroke-width:3;stroke-miterlimit:10;}
	.st2{fill:#1D1D1B;}
	.st3{fill:#FFFFFF;}
	.st4{fill:#F05D00;}
	.st5{fill:#F0286F;}
	.st6{fill:#14B0E7;}
	.st7{fill:#1D1D1B;stroke:#1D1D1B;stroke-width:0.9099;stroke-miterlimit:10;}
	.st8{fill:#9600BF;}
	.st9{fill:#1D1D1B;stroke:#1D1D1B;stroke-width:0.1137;stroke-miterlimit:10;}
	.st10{fill:#1D1D1B;stroke:#1D1D1B;stroke-width:0.4549;stroke-miterlimit:10;}
	.st11{fill:#0006F4;}
	.st12{fill:#D5FF39;}
	.st13{fill:#E9B100;}
	.st14{fill:#00FA4B;}
	.st15{fill:#1D1E1C;stroke:#1D1D1B;stroke-width:0.7742;stroke-miterlimit:10;}
	.st16{fill:#1D1E1C;stroke:#1D1D1B;stroke-width:0.729;stroke-miterlimit:10;}
	.st17{fill:#AC00B4;}
	.st18{fill:#F05D11;}
	.st19{fill:#00E9D9;}
	.st20{fill:#1D1E1C;}
	.st21{fill:#1D1D1B;stroke:#1D1D1B;stroke-width:1.0934;stroke-miterlimit:10;}
	.st22{fill:#1D1D1B;stroke:#1D1D1B;stroke-width:1.6531;stroke-miterlimit:10;}
	.st23{fill:#1D1D1B;stroke:#1D1D1B;stroke-width:1.6433;stroke-miterlimit:10;}
	.st24{fill:#1D1E1C;stroke:#1D1D1B;stroke-width:1.6433;stroke-miterlimit:10;}
	.st25{fill:none;stroke:#1D1D1B;stroke-width:5.7308;stroke-miterlimit:10;}
	.st26{fill:none;stroke:#FFFFFF;stroke-width:3.2614;stroke-miterlimit:10;}
	.st27{fill:#FFFFFF;stroke:#FFFFFF;stroke-width:0.5566;stroke-miterlimit:10;}
	.st28{fill:#FFFFFF;stroke:#FFFFFF;stroke-width:0.9242;stroke-miterlimit:10;}
</style>
<path class="st19" d="M79.51,131.66c-12.11-12.11-12.11-31.8,0-43.91c5.86-5.86,13.66-9.09,21.96-9.09s16.09,3.23,21.96,9.09
	c12.11,12.11,12.11,31.8,0,43.91l-21.96,21.96L79.51,131.66z"/>
<path class="st1" d="M122.99,84.39L122.99,84.39c-12.7-12.7-33.28-12.7-45.98,0l0,0c-12.7,12.7-12.7,33.28,0,45.98L100,153.36
	l22.99-22.99C135.69,117.67,135.69,97.08,122.99,84.39z"/>
<path class="st3" d="M116.45,111.44c1.75-1.4,2.78-3.53,2.78-5.79V87.72l-1.35-1.35h-18.3c-1.69,0-3.31,0.55-4.64,1.57v-0.22
	l-1.35-1.35h-6.16l-1.35,1.35v6.92c0,1.88-1.53,3.41-3.41,3.41h-1.92v3.02h1.92c3.55,0,6.43-2.88,6.43-6.43v-5.25h2.82v25.24
	c0,1.88-1.53,3.41-3.41,3.41H87.6c-3.55,0-6.43,2.88-6.43,6.43v6.22h3.02v-6.22c0-1.88,1.53-3.41,3.41-3.41h0.92
	c3.55,0,6.43-2.88,6.43-6.43v-20.6c0-2.56,2.08-4.64,4.64-4.64h16.63v16.26c0,2.42-1.97,4.39-4.39,4.39h-7.32
	c-1.88,0-3.41-1.53-3.41-3.41v-2.84h-3.02v2.84c0,3.55,2.88,6.43,6.43,6.43h7.63c2.42,0,4.39,1.97,4.39,4.39V131h3.02v-13.54
	C119.55,115.05,118.4,112.84,116.45,111.44z"/>
</svg>
