<?xml version="1.0" encoding="utf-8"?>
<!-- Generator: Adobe Illustrator 24.3.0, SVG Export Plug-In . SVG Version: 6.00 Build 0)  -->
<svg version="1.1" id="Crafticons_-_Simple_Set" xmlns="http://www.w3.org/2000/svg" xmlns:xlink="http://www.w3.org/1999/xlink"
	 x="0px" y="0px" viewBox="0 0 200 200" style="enable-background:new 0 0 200 200;" xml:space="preserve">
<style type="text/css">
	.st0{fill:#F05D4B;}
	.st1{fill:none;stroke:#000000;stroke-width:3;stroke-miterlimit:10;}
	.st2{fill:#1D1D1B;}
	.st3{fill:#FFFFFF;}
	.st4{fill:#F05D00;}
	.st5{fill:#F0286F;}
	.st6{fill:#14B0E7;}
	.st7{fill:#1D1D1B;stroke:#1D1D1B;stroke-width:0.9099;stroke-miterlimit:10;}
	.st8{fill:#9600BF;}
	.st9{fill:#1D1D1B;stroke:#1D1D1B;stroke-width:0.1137;stroke-miterlimit:10;}
	.st10{fill:#1D1D1B;stroke:#1D1D1B;stroke-width:0.4549;stroke-miterlimit:10;}
	.st11{fill:#0006F4;}
	.st12{fill:#D5FF39;}
	.st13{fill:#E9B100;}
	.st14{fill:#00FA4B;}
	.st15{fill:#1D1E1C;stroke:#1D1D1B;stroke-width:0.7742;stroke-miterlimit:10;}
	.st16{fill:#1D1E1C;stroke:#1D1D1B;stroke-width:0.729;stroke-miterlimit:10;}
	.st17{fill:#AC00B4;}
	.st18{fill:#F05D11;}
	.st19{fill:#00E9D9;}
	.st20{fill:#1D1E1C;}
	.st21{fill:#1D1D1B;stroke:#1D1D1B;stroke-width:1.0934;stroke-miterlimit:10;}
	.st22{fill:#1D1D1B;stroke:#1D1D1B;stroke-width:1.6531;stroke-miterlimit:10;}
	.st23{fill:#1D1D1B;stroke:#1D1D1B;stroke-width:1.6433;stroke-miterlimit:10;}
	.st24{fill:#1D1E1C;stroke:#1D1D1B;stroke-width:1.6433;stroke-miterlimit:10;}
	.st25{fill:none;stroke:#1D1D1B;stroke-width:5.7308;stroke-miterlimit:10;}
	.st26{fill:none;stroke:#FFFFFF;stroke-width:3.2614;stroke-miterlimit:10;}
	.st27{fill:#FFFFFF;stroke:#FFFFFF;stroke-width:0.5566;stroke-miterlimit:10;}
	.st28{fill:#FFFFFF;stroke:#FFFFFF;stroke-width:0.9242;stroke-miterlimit:10;}
</style>
<path class="st5" d="M79.51,117.82c-12.11-12.11-12.11-31.8,0-43.91c5.86-5.86,13.66-9.09,21.96-9.09s16.09,3.23,21.96,9.09
	c12.11,12.11,12.11,31.8,0,43.91l-21.96,21.96L79.51,117.82z"/>
<path class="st1" d="M122.99,70.55L122.99,70.55c-12.7-12.7-33.28-12.7-45.98,0l0,0c-12.7,12.7-12.7,33.28,0,45.98L100,139.52
	l22.99-22.99C135.69,103.83,135.69,83.24,122.99,70.55z"/>
<path class="st3" d="M113.53,87.65c-1.63-0.81-3.21-0.84-3.38-0.84h-3.91V82.6c0-2.78-1.26-4.95-3.54-6.09
	c-1.63-0.81-3.21-0.84-3.38-0.84H87.37l-1.51,1.51v21.07h0v3.01h0v10.84h3.01v-10.84h5.01c1.62,0,2.72,0.59,3.36,1.8
	c0.54,1.02,0.56,2.11,0.56,2.11v5.42l1.51,1.51h10.84c2.78,0,4.95-1.26,6.09-3.54c0.81-1.63,0.84-3.21,0.84-3.38V93.74
	C117.07,90.95,115.81,88.79,113.53,87.65z M114.06,105.18c0,0.01-0.02,1.04-0.52,2.04c-0.63,1.26-1.74,1.88-3.4,1.88h-9.33v-3.91
	c0-0.18-0.02-1.76-0.84-3.38c-1.14-2.28-3.3-3.54-6.09-3.54h-5.01V78.68H99.3c0.01,0,1.04,0.02,2.04,0.52
	c1.26,0.63,1.88,1.74,1.88,3.4v4.21v3.01v0h6.92c0.01,0,1.04,0.02,2.04,0.52c1.26,0.63,1.88,1.74,1.88,3.4V105.18z"/>
</svg>
