<?xml version="1.0" encoding="utf-8"?>
<!-- Generator: Adobe Illustrator 24.3.0, SVG Export Plug-In . SVG Version: 6.00 Build 0)  -->
<svg version="1.1" id="Crafticons_-_Simple_Set" xmlns="http://www.w3.org/2000/svg" xmlns:xlink="http://www.w3.org/1999/xlink"
	 x="0px" y="0px" viewBox="0 0 200 200" style="enable-background:new 0 0 200 200;" xml:space="preserve">
<style type="text/css">
	.st0{fill:#F05D4B;}
	.st1{fill:none;stroke:#000000;stroke-width:3;stroke-miterlimit:10;}
	.st2{fill:#1D1D1B;}
	.st3{fill:#FFFFFF;}
	.st4{fill:#F05D00;}
	.st5{fill:#F0286F;}
	.st6{fill:#14B0E7;}
	.st7{fill:#1D1D1B;stroke:#1D1D1B;stroke-width:0.9099;stroke-miterlimit:10;}
	.st8{fill:#9600BF;}
	.st9{fill:#1D1D1B;stroke:#1D1D1B;stroke-width:0.1137;stroke-miterlimit:10;}
	.st10{fill:#1D1D1B;stroke:#1D1D1B;stroke-width:0.4549;stroke-miterlimit:10;}
	.st11{fill:#0006F4;}
	.st12{fill:#D5FF39;}
	.st13{fill:#E9B100;}
	.st14{fill:#00FA4B;}
	.st15{fill:#1D1E1C;stroke:#1D1D1B;stroke-width:0.7742;stroke-miterlimit:10;}
	.st16{fill:#1D1E1C;stroke:#1D1D1B;stroke-width:0.729;stroke-miterlimit:10;}
	.st17{fill:#AC00B4;}
	.st18{fill:#F05D11;}
	.st19{fill:#00E9D9;}
	.st20{fill:#1D1E1C;}
	.st21{fill:#1D1D1B;stroke:#1D1D1B;stroke-width:1.0934;stroke-miterlimit:10;}
	.st22{fill:#1D1D1B;stroke:#1D1D1B;stroke-width:1.6531;stroke-miterlimit:10;}
	.st23{fill:#1D1D1B;stroke:#1D1D1B;stroke-width:1.6433;stroke-miterlimit:10;}
	.st24{fill:#1D1E1C;stroke:#1D1D1B;stroke-width:1.6433;stroke-miterlimit:10;}
	.st25{fill:none;stroke:#1D1D1B;stroke-width:5.7308;stroke-miterlimit:10;}
	.st26{fill:none;stroke:#FFFFFF;stroke-width:3.2614;stroke-miterlimit:10;}
	.st27{fill:#FFFFFF;stroke:#FFFFFF;stroke-width:0.5566;stroke-miterlimit:10;}
	.st28{fill:#FFFFFF;stroke:#FFFFFF;stroke-width:0.9242;stroke-miterlimit:10;}
</style>
<path class="st14" d="M78.71,124.47c-12.11-12.11-12.11-31.8,0-43.91c5.86-5.86,13.66-9.09,21.96-9.09s16.09,3.23,21.96,9.09
	c12.11,12.11,12.11,31.8,0,43.91l-21.96,21.96L78.71,124.47z"/>
<path class="st1" d="M122.19,77.2L122.19,77.2c-12.7-12.7-33.28-12.7-45.98,0l0,0c-12.7,12.7-12.7,33.28,0,45.98l22.99,22.99
	l22.99-22.99C134.89,110.48,134.89,89.89,122.19,77.2z"/>
<g>
	<path class="st3" d="M119.86,116.45c-6.24,0-6.46-5.81-6.47-6.47V99.61v-5.27v-3.91c0-2.33,1.96-2.54,2.56-2.55h1.35v-2.72h-1.36
		c-1.61,0-3.82,0.82-4.78,2.91c-2.04-2.2-5.02-2.91-6.95-2.91l-0.96,0.4l-5.88,5.88c-1.36-4.89-6.11-6.28-8.81-6.28l-0.96,0.4
		l-7.82,7.82l-0.4,0.96v23.47l1.36,1.36h9.18v-2.72H82.1V94.9l7-7c1.61,0.15,5.93,1.06,5.93,6.44v6.47h-2.2v2.72h2.2v6.47
		c0,0.09,0.11,9.18,9.18,9.18h1.36v-2.72h-1.36c-6.24,0-6.46-5.81-6.47-6.47v-6.47h2.07v-2.72h-2.07v-5.9l7-7
		c1.61,0.15,5.93,1.06,5.93,6.44v5.27v10.38c0,3.18,1.92,9.18,9.18,9.18h1.36v-2.72H119.86z"/>
</g>
</svg>
