<?xml version="1.0" encoding="utf-8"?>
<!-- Generator: Adobe Illustrator 24.3.0, SVG Export Plug-In . SVG Version: 6.00 Build 0)  -->
<svg version="1.1" id="Crafticons_-_Simple_Set" xmlns="http://www.w3.org/2000/svg" xmlns:xlink="http://www.w3.org/1999/xlink"
	 x="0px" y="0px" viewBox="0 0 200 200" style="enable-background:new 0 0 200 200;" xml:space="preserve">
<style type="text/css">
	.st0{fill:#F05D4B;}
	.st1{fill:none;stroke:#000000;stroke-width:3;stroke-miterlimit:10;}
	.st2{fill:#1D1D1B;}
	.st3{fill:#FFFFFF;}
	.st4{fill:#F05D00;}
	.st5{fill:#F0286F;}
	.st6{fill:#14B0E7;}
	.st7{fill:#1D1D1B;stroke:#1D1D1B;stroke-width:0.9099;stroke-miterlimit:10;}
	.st8{fill:#9600BF;}
	.st9{fill:#1D1D1B;stroke:#1D1D1B;stroke-width:0.1137;stroke-miterlimit:10;}
	.st10{fill:#1D1D1B;stroke:#1D1D1B;stroke-width:0.4549;stroke-miterlimit:10;}
	.st11{fill:#0006F4;}
	.st12{fill:#D5FF39;}
	.st13{fill:#E9B100;}
	.st14{fill:#00FA4B;}
	.st15{fill:#1D1E1C;stroke:#1D1D1B;stroke-width:0.7742;stroke-miterlimit:10;}
	.st16{fill:#1D1E1C;stroke:#1D1D1B;stroke-width:0.729;stroke-miterlimit:10;}
	.st17{fill:#AC00B4;}
	.st18{fill:#F05D11;}
	.st19{fill:#00E9D9;}
	.st20{fill:#1D1E1C;}
	.st21{fill:#1D1D1B;stroke:#1D1D1B;stroke-width:1.0934;stroke-miterlimit:10;}
	.st22{fill:#1D1D1B;stroke:#1D1D1B;stroke-width:1.6531;stroke-miterlimit:10;}
	.st23{fill:#1D1D1B;stroke:#1D1D1B;stroke-width:1.6433;stroke-miterlimit:10;}
	.st24{fill:#1D1E1C;stroke:#1D1D1B;stroke-width:1.6433;stroke-miterlimit:10;}
	.st25{fill:none;stroke:#1D1D1B;stroke-width:5.7308;stroke-miterlimit:10;}
	.st26{fill:none;stroke:#FFFFFF;stroke-width:3.2614;stroke-miterlimit:10;}
	.st27{fill:#FFFFFF;stroke:#FFFFFF;stroke-width:0.5566;stroke-miterlimit:10;}
	.st28{fill:#FFFFFF;stroke:#FFFFFF;stroke-width:0.9242;stroke-miterlimit:10;}
</style>
<path class="st4" d="M79.51,117.42c-12.11-12.11-12.11-31.8,0-43.91c5.86-5.86,13.66-9.09,21.96-9.09s16.09,3.23,21.96,9.09
	c12.11,12.11,12.11,31.8,0,43.91l-21.96,21.96L79.51,117.42z"/>
<path class="st1" d="M122.99,70.15L122.99,70.15c-12.7-12.7-33.28-12.7-45.98,0l0,0c-12.7,12.7-12.7,33.28,0,45.98L100,139.12
	l22.99-22.99C135.69,103.43,135.69,82.84,122.99,70.15z"/>
<path class="st3" d="M110.52,99.5v2.54c1.06,0,1.76,0.46,2.21,1.46c0.39,0.87,0.41,1.81,0.41,1.85c0,1.38-0.42,2.34-1.25,2.86
	c-0.64,0.4-1.33,0.44-1.38,0.44H91.1c-0.74,0-1.3-0.22-1.72-0.68c-0.8-0.88-0.75-2.24,0.12-3.1l11.96-11.96h7.6l-2.54-2.54H93.9
	c-1.06,0-1.76-0.46-2.21-1.46c-0.39-0.88-0.41-1.81-0.41-1.85c0-1-0.17-2.22-0.79-3.3h24.08v-2.54H86.14v2.54l-0.01,0
	c0.01,0,0.72,0.02,1.38,0.44c0.83,0.52,1.25,1.49,1.25,2.86c0,0.14,0.02,1.44,0.59,2.78c0.84,1.97,2.46,3.06,4.57,3.06h3.97
	L87.7,103.06c-1.82,1.82-1.91,4.72-0.2,6.6c0.9,0.99,2.14,1.52,3.6,1.52h19.42c0.13,0,1.35-0.02,2.59-0.75
	c2.12-1.25,2.57-3.46,2.57-5.1c0-0.14-0.02-1.44-0.59-2.78C114.25,100.59,112.62,99.5,110.52,99.5z"/>
</svg>
